<svg width="69" height="65" viewBox="0 0 69 65" fill="none" xmlns="http://www.w3.org/2000/svg">
<g filter="url(#filter0_d_4_282)">
<path d="M49.5 13.5H19.5C16.1863 13.5 13.5 16.1863 13.5 19.5V45.5C13.5 48.8137 16.1863 51.5 19.5 51.5H49.5C52.8137 51.5 55.5 48.8137 55.5 45.5V19.5C55.5 16.1863 52.8137 13.5 49.5 13.5Z" fill="white"/>
</g>
<path d="M27.9 40.6682H41.857C42.1967 40.6931 42.5325 40.5831 42.7916 40.362C43.0507 40.1409 43.2122 39.8266 43.241 39.4872C43.2119 39.148 43.0503 38.8339 42.7913 38.613C42.5322 38.3921 42.1965 38.2823 41.857 38.3072H27.884C27.5443 38.2823 27.2085 38.3923 26.9494 38.6134C26.6903 38.8345 26.5288 39.1488 26.5 39.4882C26.5291 39.8274 26.6907 40.1415 26.9497 40.3623C27.2088 40.5832 27.5445 40.6931 27.884 40.6682H27.9Z" fill="#2C3066"/>
<path d="M27.901 33.7722H41.857C42.1089 33.8014 42.3641 33.766 42.5986 33.6692C42.833 33.5725 43.039 33.4176 43.197 33.2192C43.3358 33.0366 43.411 32.8136 43.411 32.5842C43.411 32.3548 43.3358 32.1318 43.197 31.9492C43.039 31.7508 42.833 31.5959 42.5986 31.4991C42.3641 31.4024 42.1089 31.3669 41.857 31.3962H27.884C27.565 31.4044 27.2605 31.5311 27.0299 31.7517C26.7993 31.9723 26.6592 32.2709 26.637 32.5892C26.6616 32.9057 26.8027 33.2019 27.0331 33.4204C27.2634 33.6389 27.5666 33.7642 27.884 33.7722H27.901Z" fill="#2C3066"/>
<path d="M27.9011 26.876H33.2171C33.5352 26.8679 33.8391 26.7419 34.0695 26.5223C34.3 26.3028 34.4406 26.0054 34.4641 25.688C34.4406 25.3706 34.3 25.0732 34.0695 24.8537C33.8391 24.6341 33.5352 24.5081 33.2171 24.5H27.9011C27.5829 24.5081 27.279 24.6341 27.0486 24.8537C26.8181 25.0732 26.6775 25.3706 26.6541 25.688C26.6775 26.0054 26.8181 26.3028 27.0486 26.5223C27.279 26.7419 27.5829 26.8679 27.9011 26.876Z" fill="#2C3066"/>
<defs>
<filter id="filter0_d_4_282" x="4.5" y="4.5" width="60" height="56" filterUnits="userSpaceOnUse" color-interpolation-filters="sRGB">
<feFlood flood-opacity="0" result="BackgroundImageFix"/>
<feColorMatrix in="SourceAlpha" type="matrix" values="0 0 0 0 0 0 0 0 0 0 0 0 0 0 0 0 0 0 127 0" result="hardAlpha"/>
<feOffset/>
<feGaussianBlur stdDeviation="4.5"/>
<feColorMatrix type="matrix" values="0 0 0 0 0 0 0 0 0 0 0 0 0 0 0 0 0 0 0.039 0"/>
<feBlend mode="normal" in2="BackgroundImageFix" result="effect1_dropShadow_4_282"/>
<feBlend mode="normal" in="SourceGraphic" in2="effect1_dropShadow_4_282" result="shape"/>
</filter>
</defs>
</svg>
