<svg width="14" height="12" viewBox="0 0 14 12" fill="none" xmlns="http://www.w3.org/2000/svg">
<g opacity="0.4">
<path d="M9.56422 1C8.9314 1 8.35122 1.20053 7.83983 1.59603C7.34955 1.9752 7.02313 2.45815 6.83096 2.80933C6.63879 2.45813 6.31237 1.9752 5.82209 1.59603C5.3107 1.20053 4.73052 1 4.0977 1C2.33174 1 1 2.44446 1 4.35995C1 6.42935 2.66144 7.84521 5.17663 9.98861C5.60375 10.3526 6.08788 10.7652 6.59107 11.2052C6.6574 11.2633 6.74259 11.2953 6.83096 11.2953C6.91934 11.2953 7.00452 11.2633 7.07085 11.2052C7.57409 10.7652 8.0582 10.3526 8.48556 9.98838C11.0005 7.84521 12.6619 6.42935 12.6619 4.35995C12.6619 2.44446 11.3302 1 9.56422 1Z" stroke="#2C3066"/>
</g>
</svg>
